<?xml version="1.0" encoding="utf-8"?>
<svg xmlns="http://www.w3.org/2000/svg" viewBox="-1526.7 -206.54 571.53 961.9536" width="571.53px" height="961.954px" preserveAspectRatio="none"><path style="fill: none; stroke-linecap: round; stroke-width: 5px; stroke-dasharray: 1, 20; stroke: rgb(0, 92, 255); transform-origin: -1247.89px 267.039px;" d="M -1526.7 -206.54 C -1526.5 -184.31 -1525.9 -100.3 -1525.8 -61.68 C -1525.7 -10.285 -1457.6 -7.745 -1425.8 -3.815 C -1412.6 -2.175 -1362 3.995 -1323.1 11.015 C -1311.6 13.075 -1292.9 17.985 -1278.2 28.415 C -1272.7 32.285 -1258.7 42.395 -1251.1 54.555 C -1243.2 67.385 -1241.2 82.175 -1239.5 88.805 C -1237.7 95.585 -1236.3 104.795 -1234.4 132.245 C -1232.7 157.225 -1233.2 187.585 -1230.3 218.885 C -1226.9 255.455 -1219.8 323.865 -1208.4 366.967 C -1206.8 373.092 -1203.6 384.015 -1198.8 392.562 C -1189.9 408.752 -1176.9 424.982 -1168.2 444.092 C -1163.2 455.171 -1154.1 477.423 -1144.6 503.284 C -1138.2 520.704 -1133.6 541.18 -1125.1 559.564 C -1108.2 596.233 -1081.3 646.281 -1067.6 663.157 C -1063.8 667.814 -1049.4 676.998 -1038.4 685.821 C -1035.6 688.119 -1024.1 698.619 -1011.4 713.058 C -1002.7 722.97 -993.57 736.487 -985.23 743.473 C -966.98 758.765 -955.69 755.009 -955.17 754.999" id="path-2"><animate attributeName="stroke-dashoffset" values="0px;42px" begin="0s" dur="1s" fill="freeze" keyTimes="0; 1" end="1s" repeatCount="indefinite"/></path></svg>