<?xml version="1.0" encoding="utf-8"?>
<svg xmlns="http://www.w3.org/2000/svg" viewBox="-1665.607 -474.392 775.444 1320.483" xmlns:bx="https://boxy-svg.com">
  <defs>
    <bx:export>
      <bx:file format="svg" href="#object-0" path="Senza titolo.svg"/>
      <bx:file format="png" href="#object-1" path="Senza titolo 2.png"/>
      <bx:file format="png" href="#object-2" path="Senza titolo 3.png"/>
      <bx:file format="png" href="#object-3" path="Senza titolo 4.png"/>
      <bx:file format="png" href="#object-4" path="Senza titolo 5.png"/>
      <bx:file format="png" href="#object-5" path="Senza titolo 6.png"/>
      <bx:file format="png" href="#object-6" path="Senza titolo 7.png"/>
      <bx:file format="png" href="#object-7" path="Senza titolo 8.png"/>
      <bx:file format="png" href="#object-8" path="Senza titolo 9.png"/>
      <bx:file format="png" href="#object-9" path="Senza titolo 10.png"/>
      <bx:file format="png" href="#object-10" path="Senza titolo 11.png"/>
      <bx:file format="png" href="#object-11" path="Senza titolo 12.png"/>
      <bx:file format="png" href="#object-12" path="Senza titolo 13.png"/>
      <bx:file format="png" href="#object-13" path="Senza titolo 14.png"/>
      <bx:file format="png" href="#object-14" path="Senza titolo 15.png"/>
      <bx:file format="png" href="#object-15" path="Senza titolo 16.png"/>
    </bx:export>
  </defs>
  <polyline style="fill: none; stroke: rgb(31, 41, 55); stroke-width: 2px;" points="-666.75 -453.14 -662.7 84.145"/>
  <path style="fill: none; stroke: rgb(31, 41, 55); stroke-width: 2px; stroke-linecap: round;" d="M -664.92 -341.57 C -650.02 -334.26 -642.62 -321.27 -633.26 -306.41 C -626.35 -295.44 -623.4 -278.5 -618.53 -263.53 C -613.83 -249.07 -602.08 -238.2 -585.75 -235.65" id="object-1"/>
  <path style="fill: none; stroke: rgb(31, 41, 55); stroke-width: 2px; stroke-linecap: round;" d="M -665.58 -261.58 C -652.69 -262.99 -636.7 -237.29 -627.92 -222.37 C -619.63 -208.28 -612.05 -195.94 -597 -193.06" id="object-2"/>
  <path style="fill: none; stroke: rgb(31, 41, 55); stroke-width: 2; stroke-linecap: round;" d="M -664.6 -190.91 C -648.54 -187.65 -630.96 -176.18 -614.95 -163.9 C -593.49 -147.42 -570.04 -127.66 -561.67 -126.01" id="object-3"/>
  <path style="fill: none; stroke: rgb(31, 41, 55); stroke-width: 2; stroke-linecap: round;" d="M -663.73 -143.17 C -641.12 -124.82 -591.18 -117.78 -560.71 -111.53 C -534.22 -106.08 -465.2 -94.824 -448.97 -90.516" id="object-4"/>
  <path style="fill: none; stroke: rgb(31, 41, 55); stroke-width: 2; stroke-linecap: round;" d="M -664.3 -92.438 C -626.06 -68.927 -586.54 -67.368 -541.42 -60.58 C -487.24 -52.43 -463.14 -49.393 -442.89 -40.11 C -434.14 -36.1 -417.15 -28.783 -404.38 -6.41 C -400.12 1.061 -386.63 44.748 -387.33 67.57 C -388.15 93.986 -384.82 117.263 -384.81 123.252 C -384.8 127.558 -360.82 256.411 -360.81 277.276 C -360.79 294.058 -352.3 312.951 -346.27 323.857 C -340.73 333.873 -319.98 360.873 -316.9 369.255 C -314.26 376.455 -313.48 378.445 -305.56 398.113 C -299.37 413.494 -285.61 459.215 -270.98 493.5 C -270.98 493.5 -231.22 565.081 -216.55 586.358 C -210.66 594.903 -187.53 607.958 -173.9 624.671 C -161.97 639.297 -154.79 657.673 -154.57 658.291" id="object-5"/>
  <path style="fill: none; stroke: rgb(31, 41, 55); stroke-width: 2; stroke-linecap: round;" d="M -664 -40.231 C -636.23 -11.478 -612.76 -4.086 -567.63 2.704 C -513.45 10.854 -485.82 9.799 -466.09 20.158 C -444.69 31.4 -435.53 45.341 -436.02 63.502 C -436.26 72.1 -436.34 102.002 -433.44 127.835 C -430.48 154.102 -426.43 194.413 -426.69 200.397 C -426.88 204.832 -410.4 292.278 -401.49 309.821 C -393.88 324.781 -385.15 344.893 -379.11 355.799 C -373.57 365.815 -373.31 384.98 -363.01 407.826 C -359.85 414.817 -339.1 440.519 -327.56 460.187 C -319.17 474.489 -255.63 573.518 -240.96 594.795 C -235.07 603.34 -228.71 618.252 -218.79 637.328 C -204.81 664.212 -199.69 707.092 -199.47 707.71" id="object-6"/>
  <path style="fill: none; stroke: rgb(31, 41, 55); stroke-width: 2; stroke-linecap: round;" d="M -663.08 15.3 C -649.96 45.87 -569.48 56.898 -551.34 60.904 C -525.88 66.528 -468.05 62.779 -458.79 89.764" id="object-7"/>
  <path style="fill: none; stroke-linecap: round; stroke: rgb(154, 104, 69);" d="M -665.68 -291.15 C -667.45 -269.41 -647.6 -278.24 -634.93 -261.58 C -622.01 -244.6 -625.33 -239.69 -615.57 -228.1 C -607.02 -217.97 -594.17 -211.57 -590.55 -210.46" id="object-8"/>
  <path style="fill: none; stroke-linecap: round; stroke: rgb(154, 104, 69); stroke-width: 1;" d="M -665.7 -286.79 C -665.58 -264.56 -665.64 -281.97 -665.38 -242.87 C -665.22 -218.51 -650.98 -213.61 -636.59 -203.09 C -622.75 -192.97 -604.7 -183.42 -599.48 -169.61" id="object-9"/>
  <path style="fill: none; stroke-linecap: round; stroke: rgb(154, 104, 69); stroke-width: 1;" d="M -665.64 -286.7 C -665.51 -264.49 -665.68 -215.55 -664.48 -176.47 C -663.82 -154.86 -631.14 -147.47 -599.81 -138.09 C -578.68 -131.76 -558.39 -121.13 -549.44 -118.8" id="object-10"/>
  <path style="fill: none; stroke-linecap: round; stroke: rgb(154, 104, 69); stroke-width: 1; transform-box: fill-box; transform-origin: 48.779% 49.2307%;" d="M -665.68 -286.59 C -665.56 -264.37 -664.92 -180.35 -664.82 -141.73 C -664.68 -90.343 -596.61 -87.803 -564.8 -83.866 C -551.59 -82.231 -501.06 -76.062 -462.08 -69.039 C -450.65 -66.98 -431.93 -62.074 -417.18 -51.645 C -411.71 -47.775 -397.72 -37.664 -390.16 -25.5 C -382.18 -12.668 -380.25 2.124 -378.52 8.754 C -376.75 15.533 -375.27 24.736 -373.41 52.187 C -371.71 77.173 -372.26 107.524 -369.31 138.827 C -365.87 175.401 -358.8 243.809 -347.43 286.911 C -345.81 293.036 -342.57 303.959 -337.86 312.506 C -328.93 328.696 -315.93 344.926 -307.22 364.036 C -302.17 375.115 -293.09 397.367 -283.62 423.228 C -277.24 440.648 -272.66 461.124 -264.16 479.508 C -247.21 516.177 -220.27 566.225 -206.57 583.101 C -202.79 587.758 -188.45 596.942 -177.45 605.765 C -174.59 608.063 -163.14 618.563 -150.41 633.002 C -141.67 642.914 -132.58 656.431 -124.24 663.417 C -105.99 678.709 -94.7 674.953 -94.178 674.943" id="object-11"/>
  <path style="fill: none; stroke-linecap: round; stroke: rgb(154, 104, 69); stroke-width: 1; transform-origin: -581.006px -92.751px;" d="M -666.04 -288.17 C -665.91 -265.95 -664.77 -127.52 -664.67 -88.902 C -664.53 -37.512 -600.02 -37.011 -568.21 -29.511 C -555.26 -26.461 -528.88 -25.269 -489.9 -18.239 C -478.46 -16.179 -454.35 -10.325 -438.39 -1.864 C -417.66 9.125 -417.16 30.087 -414.41 46.145 C -413.37 52.268 -412.06 98.06 -410.33 104.69 C -408.56 111.47 -394.99 266.532 -384.22 296.267 C -371.7 330.806 -364 333.515 -355.88 352.261 C -346.74 373.384 -348.68 374.785 -340.84 391.939 C -333.15 408.754 -328.29 414.97 -319.59 434.08 C -314.54 445.159 -300.77 467.411 -289.73 485.448 C -280.05 501.272 -274.86 513.173 -264.01 532.339 C -244.11 567.498 -238.04 576.488 -226.25 594.746 C -214.64 612.704 -203.76 622.716 -198.22 631.324 C -190.45 643.402 -191.76 641.134 -186.5 656.32 C -182.17 668.807 -183.24 668.915 -182 675.527 C -181.09 680.354 -176.85 682.784 -170.53 687.008 C -162.79 692.181 -161.61 725.31 -160.24 738.023 C -157.3 765.263 -157.09 779.929 -156.8 779.924" id="object-12"/>
  <path style="fill: none; stroke-linecap: round; stroke: rgb(154, 104, 69); stroke-width: 1;" d="M -182.42 674.15 C -180.99 683.067 -190.04 688.916 -189.34 696.469 C -187.57 715.319 -185.35 724.496 -183.87 736.862 C -181.53 756.365 -178.73 788.325 -176.75 798.95" id="object-13"/>
  <path style="fill: none; stroke-linecap: round; stroke: rgb(154, 104, 69); stroke-width: 1; transform-origin: -579.335px -35.611px;" d="M -665.59 -286.7 C -665.47 -264.49 -664.58 -70.141 -664.48 -31.521 C -664.34 19.869 -598.36 20.124 -566.54 27.624 C -553.59 30.684 -549.14 29.344 -510.15 36.374 C -498.72 38.434 -477.41 41.474 -461.45 49.934 C -440.72 60.924 -447.47 90.934 -447.04 107.22 C -446.83 115.029 -450.41 127.27 -446.05 175.321 C -441.34 227.17 -427.42 269.843 -417.01 302.228 C -410.31 323.06 -402.87 343.412 -396.88 354.25 C -392.24 362.65 -387.89 373.757 -382.04 390.851 C -374.62 412.504 -380.46 402.413 -372.62 419.567 C -364.93 436.382 -333.37 473.515 -321.85 490.658 C -315.06 500.76 -299.1 524.551 -288.06 542.588 C -278.38 558.412 -264.7 580.046 -252.23 598.192 C -242.16 612.833 -242.68 628.881 -236.1 650.2 C -229.58 671.308 -228.79 675.078 -225.22 683.967 C -219.86 697.298 -212.26 690.135 -209.56 709.806 C -209.11 713.056 -206.86 736.454 -205.62 743.066 C -204.72 747.893 -202.15 780.397 -200.06 793.896" id="object-14"/>
  <path style="fill: none; stroke-linecap: round; stroke: rgb(154, 104, 69); stroke-width: 1;" d="M -230.32 669.082 C -229.64 673.321 -225.78 677.958 -226.26 685.123 C -226.8 693.028 -233.96 694.466 -233.02 703.487 C -231.07 722.319 -226.28 752.032 -223.06 777.327" id="object-15"/>
  <path style="fill: none; stroke-linecap: round; stroke: rgb(31, 41, 55); stroke-width: 3px;" d="M -744.38 -149.91 C -741.41 -166.66 -735.65 -183.14 -735.47 -200.15 C -735.29 -217.44 -739.26 -234.62 -743.3 -251.43 C -744.48 -256.31 -754.36 -255.64 -756.49 -257.96 C -765.65 -267.94 -768.72 -279.72 -770.54 -292.61 C -772.11 -303.7 -771.51 -308.75 -765.52 -318.4 C -764.85 -319.48 -759.99 -320.01 -759.06 -319.87 C -757.79 -319.68 -755.67 -317.24 -755.45 -318.5 C -754.24 -325.5 -756.55 -332.65 -757.01 -339.74 C -759.77 -382.24 -757.38 -420.19 -713.23 -443.87 C -671.74 -466.12 -620.15 -450.75 -593.16 -414.24 C -584.72 -402.81 -579.88 -388.85 -576.26 -375.12 C -573.84 -365.9 -575.76 -356.06 -575.33 -346.54 C -574.91 -337.13 -574.55 -327.71 -573.71 -318.34 C -573.63 -317.55 -572.25 -319.01 -571.47 -319.11 C -568.85 -319.47 -566.11 -320.36 -563.55 -319.68 C -561.06 -319.01 -557.95 -317.75 -557.17 -315.29 C -554.9 -308.12 -554.72 -300.35 -555.06 -292.84 C -555.58 -281.49 -558.62 -267.79 -565.28 -257.99 C -567.85 -254.21 -570.92 -250.65 -574.56 -247.88 C -575.33 -247.3 -582.84 -247.2 -583.57 -244.89 C -586.13 -236.78 -584.84 -227.79 -587.4 -219.68 C -593.87 -199.15 -607.63 -178.86 -594.24 -156.21 C -577.19 -127.36 -547.23 -118.03 -517.9 -108.93 C -456.69 -89.939 -413.01 -94.987 -374.69 -33.512 C -351.18 4.209 -359.23 74.246 -359.33 114.335 C -359.42 147.936 -353.59 182.279 -349.86 215.647 C -347.5 236.776 -347 257.794 -340.1 278.347 C -328.6 312.64 -302.07 337.938 -288.8 371.142 C -278.7 396.416 -272.41 423.391 -263.94 449.196 C -250.46 490.224 -228.99 530.343 -206.33 566.92 C -194.01 586.795 -171.5 592.11 -155.41 607.497 C -141.41 620.886 -133.1 638.643 -118.83 652.258 C -113.79 657.066 -108.17 661.225 -102.68 665.51 C -97.757 669.352 -85.811 672.451 -96.289 680.609 C -112.48 693.218 -136.4 672.638 -146.92 665.073 C -149.83 662.983 -153.73 654.451 -154.87 657.847 C -158.57 668.99 -156.16 676.069 -154.39 687.564 C -152.27 701.376 -148.96 723.01 -147.46 742.143 C -146.66 752.436 -145.71 762.116 -147.26 769.216 C -148.08 772.968 -153.09 779.149 -156.87 779.83 C -160.86 780.548 -164.13 779.884 -167.69 780.015 L -167.68 780.05 C -168.45 774.063 -168.86 763.874 -170.31 752.816 C -172.75 734.289 -176.43 713.04 -177.3 702.964 C -177.41 701.746 -177.69 701.61 -177.42 702.801 C -177.08 704.28 -176.06 717.156 -174.9 723.262 C -174.49 725.407 -173.86 730.583 -173.55 732.744 C -172.47 740.31 -172.28 736.833 -171.53 744.204 C -171.1 748.434 -170.27 753.72 -169.66 757.462 C -169.1 760.906 -169.68 762.172 -168.93 768.499 C -168.35 773.494 -168.54 773.137 -168 778.138 C -167.63 781.642 -166.77 789.85 -168.03 792.359 C -170.71 797.696 -174.03 799.046 -177.02 799.122 C -188.32 799.411 -189.16 789.405 -189.72 781.777 C -189.72 781.777 -193.13 761.73 -194.62 743.601 C -195.62 731.489 -198.57 719.434 -199.69 708.107 C -199.76 707.389 -199.22 707.822 -199.14 708.539 C -198.94 710.523 -198.5 717.54 -197.3 723.147 C -195.33 732.403 -195.13 738.046 -194.61 743.771 C -194.02 750.186 -192.63 762.141 -192.26 766.303 C -192.07 768.49 -189.76 781.716 -189.76 781.716 C -189.76 781.716 -191.18 787.608 -192.73 789.987 C -194.14 792.168 -196.6 794.166 -200.39 794.395 C -205.78 794.72 -208.28 792.219 -209.78 789.12 C -211.33 785.938 -211.33 785.203 -211.93 781.442 C -212.93 775.137 -213.34 767.326 -214.24 760.15 C -215.32 751.584 -216.87 744.078 -217.85 731.93 C -218.37 725.383 -219.19 724.694 -219.99 718.162 C -220.62 713.039 -222.31 706.215 -221.73 704.36 L -221.73 704.393 C -220.58 716.217 -216.24 746.38 -214.27 763.358 C -213.64 768.738 -212.32 778.423 -212.32 778.423 C -213.52 780.156 -223.69 779.873 -228.75 774.908 C -230.69 773.005 -233.67 769.626 -235.28 763.037 C -236.77 756.926 -237.9 746.632 -238.1 744.585 C -238.58 739.662 -240.63 724.508 -242.35 713.341 C -243.39 706.579 -246.37 687.71 -246.93 685.549 C -248.94 677.733 -251.04 670.04 -252.77 661.814 C -254.59 653.196 -254.5 653.481 -256.98 643.928 C -258.89 636.556 -260.19 630.339 -260.3 621.831 C -260.48 606.136 -261.42 601.215 -263.26 598.076 C -264.85 595.385 -271.52 583.977 -279.3 572.296 C -285.03 563.688 -291.35 554.812 -295.86 548.87 C -305.51 536.179 -314.1 522.983 -323.55 510.092 C -336.5 492.433 -349.95 474.836 -363.19 457.471 C -366.66 452.916 -373.98 442.992 -379.53 433.457 C -381.86 429.467 -385.02 424.264 -387.72 417.767 C -391.1 409.629 -393.04 400.045 -393.94 396.352 C -394.81 392.809 -398.91 381.952 -404.34 371.434 C -411.01 358.519 -412.82 353.363 -416.7 341.524 C -420.35 330.368 -421.99 315.778 -426.71 305.03 C -428.44 301.111 -430.4 294.012 -433.13 286.833 C -436.17 278.848 -439.84 271.179 -441.43 266.688 C -447.55 249.328 -447.8 248.19 -452.2 230.319 C -454.22 222.146 -460.51 187.881 -460.86 179.277 C -461.95 152.004 -461.69 129.388 -459.1 100.619 C -458.55 94.551 -456.99 79.49 -456.3 68.107 L -456.32 68.108 C -457.37 77.895 -457.64 89.813 -458.37 94.123 C -459.19 99.02 -461.11 123.976 -461.43 132.514 C -461.7 139.679 -460.82 163.106 -461.86 178.983 C -463.09 198.025 -467.68 222.981 -468.8 230.187 C -470.53 241.347 -470.86 243.112 -472.76 254.243 C -473.08 256.121 -476.46 275.6 -476.82 277.453 C -478.54 286.097 -482.42 298.14 -484.53 306.695" id="object-0"/>
  <path style="fill: none; stroke-linecap: round; stroke-dasharray: 5, 10; paint-order: fill; stroke: rgb(255, 0, 0); stroke-width: 0px;" d="M -665.77 -291.39 C -667.54 -269.65 -647.69 -278.48 -635.02 -261.82 C -622.1 -244.84 -625.42 -239.93 -615.66 -228.34 C -607.11 -218.21 -594.26 -211.81 -590.64 -210.7" id="path-1"/>
  <path style="fill: none; stroke-linecap: round; stroke-width: 5px; stroke-dasharray: 1, 20; transform-origin: -1390.88px -74.409px; stroke: rgb(0, 28, 255);" d="M -1475.9 -269.82 C -1475.8 -247.62 -1474.6 -109.19 -1474.5 -70.557 C -1474.4 -19.167 -1409.9 -18.667 -1378.1 -11.167 C -1365.1 -8.117 -1338.8 -6.927 -1299.8 0.103 C -1288.3 2.163 -1264.2 8.013 -1248.3 16.483 C -1227.5 27.463 -1227 48.433 -1224.3 64.483 C -1223.2 70.613 -1221.9 116.403 -1220.2 123.033 C -1218.4 129.813 -1204.9 284.874 -1194.1 314.609 C -1181.6 349.148 -1173.9 351.857 -1165.7 370.603 C -1156.6 391.726 -1158.6 393.127 -1150.7 410.281 C -1143 427.096 -1138.2 433.312 -1129.5 452.422 C -1124.4 463.501 -1110.6 485.753 -1099.6 503.79 C -1089.9 519.614 -1084.7 531.515 -1073.9 550.681 C -1054 585.84 -1047.9 594.83 -1036.1 613.088 C -1024.5 631.046 -1013.6 641.058 -1008.1 649.666 C -1000.3 661.744 -1001.6 659.476 -996.37 674.662 C -992.05 687.149 -993.12 687.257 -991.87 693.869 C -990.97 698.696 -986.72 701.126 -980.4 705.35 C -972.66 710.523 -971.49 743.652 -970.12 756.365 C -967.18 783.605 -966.97 798.271 -966.68 798.266" id="path-2">
    <animate attributeName="stroke-dashoffset" values="0px;42px" dur="1s" fill="freeze" end="1s" keyTimes="0; 1"/>
  </path>
  <path style="fill: none; stroke-linecap: round; stroke-width: 5px; stroke-dasharray: 1, 20; stroke: rgb(0, 28, 255);" d="M -991.84 692.031 C -990.41 700.948 -999.5 706.797 -998.77 714.35 C -997 733.2 -994.78 742.377 -993.3 754.743 C -990.96 774.246 -988.15 806.206 -986.17 816.831" id="path-3">
    <animate attributeName="stroke-dashoffset" values="0px;42px" dur="1s" fill="freeze" end="1s" repeatCount="indefinite" keyTimes="0; 1"/>
  </path>
</svg>