<?xml version="1.0" encoding="utf-8"?>
<svg xmlns="http://www.w3.org/2000/svg" viewBox="448.1615 -405.4374 679.1671 1402.7985" width="679.167px" height="1402.8px" preserveAspectRatio="none"><path style="fill: none; stroke-width: 3px; stroke-linecap: round; stroke: rgb(31, 41, 55);" d="M 475.065 -101.136 C 478.034 -117.881 483.794 -134.366 483.973 -151.372 C 484.155 -168.662 480.177 -185.837 476.136 -202.649 C 474.961 -207.537 465.086 -206.864 462.953 -209.186 C 453.793 -219.157 450.722 -230.938 448.9 -243.833 C 447.333 -254.925 447.932 -259.972 453.924 -269.618 C 454.595 -270.698 459.454 -271.237 460.379 -271.095 C 461.651 -270.899 463.769 -268.457 463.988 -269.725 C 465.197 -276.718 462.895 -283.876 462.434 -290.958 C 459.669 -333.461 462.063 -371.415 506.21 -395.092 C 547.704 -417.346 599.288 -401.973 626.28 -365.457 C 634.723 -354.035 639.559 -340.075 643.176 -326.34 C 645.604 -317.122 643.68 -307.28 644.109 -297.757 C 644.533 -288.351 644.892 -278.936 645.735 -269.558 C 645.806 -268.772 647.189 -270.228 647.97 -270.335 C 650.591 -270.695 653.331 -271.584 655.887 -270.9 C 658.383 -270.232 661.495 -268.971 662.275 -266.507 C 664.542 -259.342 664.72 -251.568 664.38 -244.061 C 663.865 -232.711 660.824 -219.015 654.165 -209.214 C 651.593 -205.429 648.522 -201.87 644.878 -199.102 C 644.114 -198.522 636.599 -198.42 635.871 -196.111 C 633.314 -188.005 634.598 -179.008 632.044 -170.902 C 625.575 -150.369 611.811 -130.078 625.197 -107.436 C 642.254 -78.583 672.216 -69.257 701.542 -60.156 C 762.746 -41.161 806.428 -46.209 844.746 15.266 C 868.258 52.987 860.211 123.024 860.107 163.113 C 860.02 196.714 865.85 231.057 869.58 264.425 C 871.942 285.554 872.442 306.572 879.337 327.125 C 890.84 361.418 917.375 386.716 930.642 419.92 C 940.74 445.194 947.032 472.169 955.506 497.974 C 968.979 539.002 990.451 579.121 1013.113 615.698 C 1025.427 635.573 1047.943 640.888 1064.031 656.275 C 1078.029 669.664 1086.345 687.421 1100.61 701.036 C 1105.648 705.844 1111.272 710.003 1116.762 714.288 C 1121.684 718.13 1133.63 721.229 1123.152 729.387 C 1106.957 741.996 1083.038 721.416 1072.518 713.851 C 1069.612 711.761 1065.707 703.229 1064.576 706.625 C 1060.866 717.768 1063.283 724.847 1065.047 736.342 C 1067.167 750.154 1070.479 771.788 1071.977 790.921 C 1072.782 801.214 1073.728 810.894 1072.181 817.994 C 1071.363 821.746 1066.347 827.927 1062.567 828.608 C 1058.58 829.326 1055.306 828.662 1051.755 828.793 L 1051.762 828.828 C 1050.991 822.841 1050.583 812.652 1049.129 801.594 C 1046.694 783.067 1043.013 761.818 1042.141 751.742 C 1042.036 750.524 1041.747 750.388 1042.022 751.579 C 1042.364 753.058 1043.379 765.934 1044.54 772.04 C 1044.948 774.185 1045.581 779.361 1045.89 781.522 C 1046.972 789.088 1047.161 785.611 1047.908 792.982 C 1048.337 797.212 1049.174 802.498 1049.78 806.24 C 1050.338 809.684 1049.762 810.95 1050.507 817.277 C 1051.095 822.272 1050.901 821.915 1051.438 826.916 C 1051.814 830.42 1052.667 838.628 1051.408 841.137 C 1048.73 846.474 1045.41 847.824 1042.425 847.9 C 1031.12 848.189 1030.276 838.183 1029.722 830.555 C 1029.722 830.555 1026.315 810.508 1024.82 792.379 C 1023.821 780.267 1020.873 768.212 1019.753 756.885 C 1019.682 756.167 1020.222 756.6 1020.297 757.317 C 1020.506 759.301 1020.944 766.318 1022.139 771.925 C 1024.111 781.181 1024.311 786.824 1024.833 792.549 C 1025.418 798.964 1026.808 810.919 1027.176 815.081 C 1027.369 817.268 1029.685 830.494 1029.685 830.494 C 1029.685 830.494 1028.258 836.386 1026.714 838.765 C 1025.298 840.946 1022.844 842.944 1019.053 843.173 C 1013.664 843.498 1011.164 840.997 1009.656 837.898 C 1008.107 834.716 1008.109 833.981 1007.512 830.22 C 1006.51 823.915 1006.101 816.104 1005.2 808.928 C 1004.124 800.362 1002.568 792.856 1001.595 780.708 C 1001.07 774.161 1000.254 773.472 999.453 766.94 C 998.825 761.817 997.126 754.993 997.715 753.138 L 997.707 753.171 C 998.863 764.995 1003.199 795.158 1005.172 812.136 C 1005.797 817.516 1007.125 827.201 1007.125 827.201 C 1005.924 828.934 995.746 828.651 990.686 823.686 C 988.747 821.783 985.769 818.404 984.16 811.815 C 982.668 805.704 981.543 795.41 981.344 793.363 C 980.865 788.44 978.808 773.286 977.091 762.119 C 976.051 755.357 973.073 736.488 972.515 734.327 C 970.497 726.511 968.4 718.818 966.669 710.592 C 964.856 701.974 964.942 702.259 962.463 692.706 C 960.551 685.334 959.246 679.117 959.145 670.609 C 958.958 654.914 958.026 649.993 956.179 646.854 C 954.596 644.163 947.923 632.755 940.143 621.074 C 934.408 612.466 928.091 603.59 923.577 597.648 C 913.934 584.957 905.341 571.761 895.889 558.87 C 882.941 541.211 869.486 523.614 856.251 506.249 C 852.78 501.694 845.464 491.77 839.908 482.235 C 837.583 478.245 834.419 473.042 831.721 466.545 C 828.342 458.407 826.4 448.823 825.498 445.13 C 824.633 441.587 820.534 430.73 815.1 420.212 C 808.428 407.297 806.62 402.141 802.744 390.302 C 799.092 379.146 797.45 364.556 792.728 353.808 C 791.006 349.889 789.037 342.79 786.309 335.611 C 783.275 327.626 779.597 319.957 778.014 315.466 C 771.895 298.106 771.645 296.968 767.236 279.097 C 765.219 270.924 758.932 236.659 758.585 228.055 C 757.486 200.782 757.755 178.166 760.346 149.397 C 760.893 143.329 762.45 128.268 763.138 116.885 L 763.116 116.886 C 762.068 126.673 761.799 138.591 761.074 142.901 C 760.25 147.798 758.328 172.754 758.008 181.292 C 757.739 188.457 758.616 211.884 757.585 227.761 C 756.348 246.803 751.759 271.759 750.642 278.965 C 748.913 290.125 748.586 291.89 746.68 303.021 C 746.358 304.899 742.984 324.378 742.616 326.231 C 740.899 334.875 737.026 346.918 734.913 355.473 C 733.266 362.141 730.513 374.12 728.768 380.746 C 727.681 384.874 723.54 404.193 722.717 408.338 C 720.862 417.688 721.012 423.561 719.601 432.988 C 718.087 443.102 719.186 457.005 718.988 467.138 C 718.917 470.778 720.195 489.37 720.954 493.055 C 723.384 504.847 724.866 516.923 727.191 528.108 C 728.712 535.428 731.414 548.673 735.174 555.735 C 740.568 565.867 745.257 587.431 748.878 607.938 C 750.501 617.131 753.168 627.578 754.82 642.339 C 756.049 653.312 758.181 664.158 759.267 675.299 C 761.588 699.108 762.257 702.677 762.561 712.234 C 762.822 720.436 764.152 735.971 764.053 744.119 C 764.038 745.386 761.983 836.667 761.226 909.248 C 760.73 956.774 762.412 996.392 762.405 997.361" id="object-0" transform="matrix(1, 0, 0, 1, 1.1368683772161603e-13, 0)"/></svg>